<svg width="200" height="200" viewBox="0 0 200 200" fill="none" xmlns="http://www.w3.org/2000/svg">
<path d="M25 62.2729C25 40.0289 43.033 22 65.276 22C87.52 22 105.551 40.0289 105.551 62.2729C105.551 84.5169 87.52 102.552 65.276 102.552C43.033 102.552 25 84.5169 25 62.2729Z" fill="#24C8FE"/>
<path d="M67.0161 177.783H154.971C166.088 177.783 175.098 168.769 175.098 157.656V66.4757C175.098 55.3587 166.088 46.3447 154.971 46.3447H67.0161C55.9001 46.3447 46.8881 55.3587 46.8881 66.4757V157.656C46.8881 168.769 55.8991 177.783 67.0161 177.783Z" fill="url(#paint0_linear_2864_153)"/>
<path d="M67.0161 177.783H154.971C166.088 177.783 175.098 168.769 175.098 157.656V142.711C156.523 139.643 134.238 137.852 110.279 137.852C86.9291 137.852 65.1741 139.551 46.8881 142.483V157.657C46.8881 168.769 55.8991 177.783 67.0161 177.783Z" fill="url(#paint1_linear_2864_153)"/>
<path d="M100.983 144.113L104.141 140.957L107.145 138.016C109.553 137.979 111.98 137.959 114.423 137.959C117.369 137.959 120.29 137.986 123.181 138.043C123.057 138.213 122.895 138.398 122.69 138.604L109.082 152.211C99.6551 161.637 84.375 161.736 74.945 152.307C65.516 142.88 65.6161 127.592 75.0401 118.166L94.748 98.4567C95.879 97.3277 97.0951 96.3317 98.3741 95.4687C104.052 91.6427 110.993 90.4688 117.426 91.9788C121.626 92.9608 125.608 95.0877 128.884 98.3657C130.349 99.8287 131.583 101.436 132.589 103.139L123.942 111.784C123.371 109.832 122.316 107.995 120.787 106.466C117.031 102.708 111.437 101.825 106.773 103.868C105.351 104.495 104.017 105.388 102.847 106.561L94.882 114.524L83.14 126.266C78.13 131.276 78.144 139.311 83.044 144.209C87.942 149.107 95.9761 149.123 100.983 144.113ZM147.108 80.1377C142.21 75.2377 134.178 75.2237 129.17 80.2317L122.251 87.1517C120.899 86.5557 119.501 86.0927 118.081 85.7607C114.63 84.9517 111.03 84.9137 107.561 85.6457L121.071 72.1337C130.495 62.7077 145.78 62.6107 155.206 72.0377C164.637 81.4677 164.538 96.7547 155.111 106.18L135.405 125.888C134.274 127.017 133.057 128.015 131.78 128.879C126.102 132.704 119.16 133.876 112.727 132.366C108.526 131.384 104.542 129.257 101.268 125.98C99.803 124.518 98.57 122.911 97.563 121.206L106.208 112.564C106.782 114.518 107.835 116.352 109.366 117.879C113.121 121.639 118.718 122.522 123.38 120.48C124.802 119.852 126.136 118.958 127.307 117.786L135.271 109.821L147.013 98.0787C152.024 93.0717 152.009 85.0407 147.108 80.1377Z" fill="#24C8FE"/>
<path d="M68.511 140.283C72.268 139.888 76.124 139.535 80.071 139.234C80.665 141.06 81.681 142.771 83.121 144.209C88.02 149.111 96.052 149.123 101.06 144.113L107.158 138.015C109.565 137.978 111.994 137.958 114.437 137.958C117.404 137.958 120.345 137.985 123.257 138.042C123.132 138.212 122.97 138.397 122.765 138.603L109.158 152.21C99.732 161.636 84.451 161.735 75.021 152.306C71.601 148.884 69.431 144.691 68.511 140.283Z" fill="url(#paint2_linear_2864_153)"/>
<path d="M102.306 46.3428C104.411 51.2288 105.577 56.6137 105.577 62.2727C105.577 84.5167 87.548 102.548 65.304 102.548C58.678 102.548 52.427 100.948 46.913 98.1157V66.4678C46.913 55.3548 55.926 46.3428 67.041 46.3428H102.306Z" fill="url(#paint3_linear_2864_153)"/>
<path d="M51.614 57.4041C48.915 64.8081 52.735 72.999 60.141 75.691C67.545 78.386 75.733 74.57 78.43 67.16C81.127 59.756 77.308 51.566 69.901 48.873C62.497 46.177 54.308 49.9941 51.614 57.4041ZM75.772 32.7751C79.281 34.0501 82.3529 34.687 80.5759 39.576C80.3359 40.229 80.3119 41.111 80.0759 41.769C79.5959 43.08 81.939 45.415 82.661 45.681C84.333 46.286 87.9319 43.4391 90.1619 44.2511C92.4589 45.0871 95.309 53.7741 95.001 54.6261C94.178 56.8921 89.6799 57.8141 89.0839 59.4541C86.8139 65.6861 95.15 63.739 96.168 68.53L92.8909 77.54C88.3519 79.388 83.905 73.6861 81.635 79.9191C81.026 81.5911 83.877 85.1901 83.065 87.4191C82.23 89.7161 73.573 92.579 72.687 92.259C70.458 91.448 69.534 86.9521 67.861 86.3431C65.435 85.4601 63.997 86.759 63.435 88.3C63.198 88.952 61.86 90.9911 61.622 91.6501C60.573 94.5331 54.976 92.0541 54.288 91.8041C52.518 91.1581 48.05 89.7571 49.126 86.8021C49.364 86.1501 49.745 83.464 49.987 82.806C50.485 81.433 48.185 79.1831 47.268 78.8451C45.858 78.3351 42.125 81.1361 39.897 80.3241C37.634 79.5041 34.737 70.8361 35.06 69.9491C35.87 67.7191 40.368 66.7931 40.975 65.1211C41.858 62.6931 40.561 61.2561 39.152 60.7401C33.414 58.6541 33.729 56.4651 35.518 51.5481C36.163 49.7771 37.467 45.2741 40.516 46.3871C42.78 47.2091 47.086 48.3311 48.422 44.6571C49.02 43.0161 46.17 39.421 46.994 37.155C47.818 34.895 56.519 32.0071 57.371 32.3171C59.633 33.1411 60.559 37.639 62.199 38.233C64.624 39.116 66.051 37.8521 66.623 36.2821C66.861 35.6241 68.198 33.5851 68.435 32.9271C69.51 29.9761 75.082 32.5231 75.769 32.7771H75.772V32.7751Z" fill="#80FFFF"/>
<defs>
<linearGradient id="paint0_linear_2864_153" x1="176.17" y1="110.977" x2="45.8047" y2="113.15" gradientUnits="userSpaceOnUse">
<stop stop-color="#8C63CF"/>
<stop offset="1" stop-color="#3647D3"/>
</linearGradient>
<linearGradient id="paint1_linear_2864_153" x1="47.508" y1="154.52" x2="172.184" y2="162.971" gradientUnits="userSpaceOnUse">
<stop stop-color="#1B2BBB"/>
<stop offset="0.6138" stop-color="#0D6DD2"/>
<stop offset="0.9677" stop-color="#068FDE"/>
</linearGradient>
<linearGradient id="paint2_linear_2864_153" x1="65.7129" y1="159.373" x2="122.58" y2="128.498" gradientUnits="userSpaceOnUse">
<stop stop-color="#3747D3"/>
<stop offset="1" stop-color="#71D0F6"/>
</linearGradient>
<linearGradient id="paint3_linear_2864_153" x1="28.3883" y1="96.3524" x2="111.535" y2="51.2091" gradientUnits="userSpaceOnUse">
<stop stop-color="#3747D3"/>
<stop offset="1" stop-color="#71D0F6"/>
</linearGradient>
</defs>
</svg>
